<?xml version="1.0" standalone="no"?>
<!DOCTYPE svg PUBLIC "-//W3C//DTD SVG 20010904//EN"
 "http://www.w3.org/TR/2001/REC-SVG-20010904/DTD/svg10.dtd">
<svg version="1.0" xmlns="http://www.w3.org/2000/svg"
 width="512.000000pt" height="512.000000pt" viewBox="0 0 512.000000 512.000000"
 preserveAspectRatio="xMidYMid meet">
<metadata>
Created by potrace 1.16, written by Peter Selinger 2001-2019
</metadata>
<g transform="translate(0.000000,512.000000) scale(0.100000,-0.100000)"
fill="red" stroke="none">
<path d="M2155 5095 c-24 -23 -25 -28 -25 -170 l0 -145 -144 0 -144 0 -93 -67
c-52 -37 -262 -190 -468 -340 l-375 -273 -171 0 -172 0 -27 -26 -26 -27 0
-207 0 -207 26 -27 c26 -26 28 -26 175 -26 143 0 149 -1 149 -20 0 -60 332
-3494 340 -3514 5 -14 18 -30 29 -35 28 -15 2634 -15 2662 0 11 5 24 22 30 35
7 21 339 3453 339 3515 0 18 8 19 149 19 147 0 149 0 175 26 l26 27 0 207 0
207 -26 27 -27 26 -172 0 -171 0 -375 273 c-206 150 -416 303 -468 340 l-93
67 -144 0 -144 0 0 145 c0 142 -1 147 -25 170 l-24 25 -381 0 -381 0 -24 -25z
m655 -235 l0 -80 -250 0 -250 0 0 80 0 80 250 0 250 0 0 -80z m749 -510 l343
-250 -1342 0 -1342 0 343 250 344 250 655 0 655 0 344 -250z m871 -510 l0 -80
-1870 0 -1870 0 0 80 0 80 1870 0 1870 0 0 -80z m-350 -270 c0 -6 -61 -648
-135 -1427 -74 -780 -135 -1425 -135 -1435 0 -17 -14 -18 -190 -18 l-190 0 6
28 c15 80 234 1722 234 1753 0 56 -31 89 -84 89 -32 0 -48 -6 -65 -24 -22 -23
-32 -87 -142 -893 -65 -477 -121 -887 -124 -910 l-6 -43 -300 0 -299 0 0 900
c0 771 -2 905 -15 929 -16 32 -33 41 -75 41 -42 0 -59 -9 -75 -41 -13 -24 -15
-158 -15 -929 l0 -900 -298 0 -297 0 -79 868 c-43 477 -80 887 -84 912 -7 60
-38 90 -92 90 -44 0 -76 -23 -85 -62 -3 -13 31 -419 75 -902 44 -484 80 -885
80 -893 0 -10 -39 -13 -190 -13 -176 0 -190 1 -190 18 0 10 -61 655 -135 1435
-74 779 -135 1421 -135 1427 0 7 475 10 1520 10 1045 0 1520 -3 1520 -10z
m-290 -3067 c0 -5 -7 -71 -15 -148 -8 -77 -15 -148 -15 -157 0 -17 -64 -18
-1200 -18 -1136 0 -1200 1 -1200 18 0 9 -7 80 -15 157 -8 77 -15 143 -15 148
0 4 554 7 1230 7 677 0 1230 -3 1230 -7z"/>
</g>
</svg>
